<?xml version="1.0" standalone="no"?>
<!DOCTYPE svg PUBLIC "-//W3C//DTD SVG 20010904//EN"
 "http://www.w3.org/TR/2001/REC-SVG-20010904/DTD/svg10.dtd">
<svg version="1.0" xmlns="http://www.w3.org/2000/svg"
 width="300.000000pt" height="300.000000pt" viewBox="0 0 300.000000 300.000000"
 preserveAspectRatio="xMidYMid meet">
<metadata>
Created by potrace 1.11, written by Peter Selinger 2001-2013
</metadata>
<g transform="translate(0.000000,300.000000) scale(0.100000,-0.100000)"
fill="#000000" stroke="none">
<path d="M1275 2940 c-115 -32 -430 -119 -700 -193 l-490 -133 -2 -615 c-3
-664 -2 -678 52 -820 29 -76 88 -176 153 -264 95 -126 331 -344 517 -477 136
-97 502 -328 520 -328 3 0 43 -25 90 -55 l85 -55 53 34 c28 18 118 72 198 119
80 47 192 115 248 151 95 62 310 212 321 226 3 3 41 35 85 72 239 198 405 416
482 633 l28 80 0 650 0 650 -85 23 c-155 41 -222 59 -615 167 -214 59 -397
108 -405 110 -8 2 -64 18 -125 35 -60 16 -119 32 -130 34 -11 2 -31 6 -45 9
-14 3 -115 -20 -235 -53z m545 -330 c162 -44 327 -89 365 -100 39 -11 79 -22
90 -25 11 -2 79 -20 150 -40 72 -20 138 -38 148 -40 63 -14 57 35 57 -509 -1
-544 -1 -545 -65 -672 -93 -184 -318 -400 -647 -621 -130 -87 -399 -253 -412
-253 -3 0 -6 529 -6 1175 0 935 3 1173 13 1170 6 -3 145 -41 307 -85z m-805
-334 c144 -33 235 -141 236 -281 1 -86 -34 -153 -101 -194 -20 -11 -28 -21
-19 -21 30 0 105 -77 129 -132 56 -129 4 -289 -113 -349 -86 -44 -147 -52
-442 -53 -154 -1 -286 0 -292 2 -10 3 -13 116 -13 521 l0 518 293 -3 c160 -1
306 -5 322 -8z"/>
<path d="M1639 2243 c-1 -23 -1 -933 0 -956 1 -15 11 -17 91 -15 74 1 90 4 91
17 1 9 1 98 0 199 0 165 1 182 17 182 25 1 358 1 420 1 l52 -1 0 -199 0 -199
90 0 c61 0 90 3 91 11 3 45 3 946 0 960 -3 15 -16 17 -92 17 l-89 0 0 -208 0
-208 -242 0 -243 1 -2 185 c0 102 -1 195 -2 208 -1 21 -5 22 -91 22 -79 0 -90
-2 -91 -17z"/>
<path d="M599 2108 c-1 -2 -2 -56 -3 -120 l-2 -118 171 0 c181 0 233 8 265 42
46 50 27 134 -40 173 -31 18 -55 20 -212 23 -98 1 -179 1 -179 0z"/>
<path d="M599 1695 c-1 0 -2 -60 -3 -133 l-2 -133 196 3 c185 3 197 4 237 27
70 40 82 121 25 173 -59 56 -83 61 -274 63 -98 0 -179 1 -179 0z"/>
</g>
</svg>
