<svg xmlns="http://www.w3.org/2000/svg" viewBox="0 0 30.39 30.39"><path fill="#3d444a" d="M26.78 0H3.61A3.61 3.61 0 000 3.6v23.19a3.61 3.61 0 003.61 3.6h23.17a3.61 3.61 0 003.61-3.6V3.61A3.61 3.61 0 0026.78 0zm-4 3.8h2.9a1 1 0 01.95.95V7.6a1 1 0 01-.95.95h-2.89a1 1 0 01-.95-.95V4.75a1 1 0 01.95-.95zm-7.56 5.6a5.83 5.83 0 11-5.84 5.8 5.84 5.84 0 015.85-5.8zm11.37 18.15H3.79a1 1 0 01-.95-.95V12.35h3.84a5.8 5.8 0 00-.7 2.85 9.25 9.25 0 0018.49 0 4.86 4.86 0 00-.73-2.88h3.8V26.6a1 1 0 01-.95.95z"/></svg>
