<svg xmlns="http://www.w3.org/2000/svg" viewBox="0 0 58 96"><g fill="#3d444a"><path d="M24.04 67.25c-7.4-.77-14.07-2.6-19.79-7.06-.7-.56-1.44-1.1-2.09-1.71-2.5-2.4-2.75-5.16-.77-8 1.7-2.42 4.53-3.07 7.49-1.67.57.27 1.11.6 1.64.97 10.65 7.31 25.28 7.52 35.96.32a9.75 9.75 0 013.5-1.8 5.5 5.5 0 016.3 2.5c1.57 2.56 1.55 5.04-.38 7.02a29.05 29.05 0 01-10.46 6.76c-3.73 1.45-7.82 2.18-11.87 2.67.6.66.9.99 1.28 1.37 5.5 5.52 11.02 11.03 16.5 16.57a5.46 5.46 0 011.23 6.42 6.51 6.51 0 01-6.11 3.81 5.95 5.95 0 01-3.87-1.98c-4.14-4.17-8.37-8.27-12.44-12.52-1.18-1.24-1.75-1-2.8.07-4.17 4.3-8.4 8.53-12.67 12.73-1.92 1.9-4.2 2.23-6.42 1.15a6.5 6.5 0 01-3.75-5.98 5.95 5.95 0 012-4C11.98 79.44 17.4 74 22.83 68.55c.36-.36.7-.75 1.22-1.3z"/><path d="M28.55 48.33A24.18 24.18 0 014.59 24.1 24.2 24.2 0 0128.84 0a24.18 24.18 0 0124.02 24.48c-.07 13.2-10.97 23.9-24.31 23.85zm12-24.19a11.77 11.77 0 00-11.8-11.8 11.8 11.8 0 00-11.84 11.95 11.77 11.77 0 0011.9 11.7 11.75 11.75 0 0011.74-11.85z"/></g></svg>
