<svg id="Layer_1" data-name="Layer 1" xmlns="http://www.w3.org/2000/svg" viewBox="0 0 39.79 32.33"><defs><style>.cls-1{fill:#3d444a;}</style></defs><title>twitter</title><path class="cls-1" d="M39.78 3.83a16.32 16.32 0 0 1-4.69 1.29A8.19 8.19 0 0 0 38.68.6a16.34 16.34 0 0 1-5.18 2 8.17 8.17 0 0 0-13.91 7.44A23.17 23.17 0 0 1 2.77 1.5 8.17 8.17 0 0 0 5.3 12.4a8.13 8.13 0 0 1-3.7-1v.1a8.17 8.17 0 0 0 6.55 8 8.18 8.18 0 0 1-3.69.14 8.17 8.17 0 0 0 7.63 5.67 16.38 16.38 0 0 1-10.11 3.47 16.62 16.62 0 0 1-2-.11 23.1 23.1 0 0 0 12.51 3.67c15 0 23.22-12.44 23.22-23.22V8.06a16.59 16.59 0 0 0 4.07-4.23z"/></svg>
