<svg xmlns="http://www.w3.org/2000/svg" viewBox="0 0 34 19"><path fill="#3d444a" fill-rule="evenodd" d="M31.56 1.29C31.78.54 31.56 0 30.5 0H27c-.89 0-1.3.47-1.52.99 0 0-1.78 4.34-4.3 7.16-.82.81-1.2 1.07-1.64 1.07-.22 0-.55-.26-.55-1V1.29C18.99.39 18.74 0 18 0h-5.5c-.56 0-.9.41-.9.8 0 .85 1.27 1.04 1.4 3.42v5.15c0 1.13-.2 1.33-.65 1.33-1.19 0-4.07-4.35-5.78-9.34C6.23.4 5.89 0 5 0H1.5C.5 0 .3.47.3.99c0 .93 1.19 5.52 5.52 11.6C8.72 16.76 12.8 19 16.5 19c2.22 0 2.5-.5 2.5-1.36V14.5c0-1 .21-1.2.92-1.2.51 0 1.4.26 3.48 2.26 2.37 2.38 2.77 3.44 4.1 3.44H31c1 0 1.5-.5 1.21-1.49-.31-.98-1.45-2.4-2.95-4.1-.82-.96-2.04-2-2.41-2.52-.52-.67-.37-.96 0-1.56 0 0 4.26-6 4.7-8.04z"/></svg>