<svg xmlns="http://www.w3.org/2000/svg" xmlns:xlink="http://www.w3.org/1999/xlink" viewBox="0 0 22 16"><defs><path id="a" d="M0 16h21.99V.01H0z"/></defs><g fill="none" fill-rule="evenodd"><mask id="b" fill="#fff"><use xlink:href="#a"/></mask><path fill="#3C444A" d="M8.72 10.96v-6.4l5.94 3.21-5.94 3.19zm13.05-7.5s-.22-1.57-.88-2.25C20.06.3 19.12.3 18.7.24 15.61.01 11 .01 11 .01h-.01s-4.62 0-7.7.23c-.42.06-1.36.06-2.2.97C.43 1.9.22 3.46.22 3.46S0 5.3 0 7.14v1.73c0 1.84.22 3.68.22 3.68s.21 1.56.87 2.25c.84.9 1.94.88 2.43.97 1.76.18 7.47.23 7.47.23s4.62 0 7.7-.24c.43-.05 1.37-.05 2.2-.96.66-.69.88-2.26.88-2.26s.22-1.84.22-3.68V7.14c0-1.84-.22-3.68-.22-3.68z" mask="url(#b)"/></g></svg>
