<svg viewBox="0 0 22 16" xmlns="http://www.w3.org/2000/svg" xmlns:xlink="http://www.w3.org/1999/xlink"><title>Youtube</title><defs><path id="a" d="M0 16H21.99V.012H0z"/></defs><g fill="none" fill-rule="evenodd"><mask id="b" fill="#fff"><use xlink:href="#a"/></mask><path d="M8.724 10.955V4.568l5.94 3.205-5.94 3.182zM21.77 3.462s-.216-1.567-.876-2.256C20.058.3 19.12.296 18.69.243 15.615.013 11 .013 11 .013h-.01s-4.616 0-7.693.23c-.43.053-1.367.057-2.203.963-.66.69-.874 2.256-.874 2.256S0 5.302 0 7.142v1.723c0 1.84.22 3.68.22 3.68s.214 1.565.874 2.255c.836.905 1.935.877 2.424.972 1.76.174 7.476.228 7.476.228s4.62-.007 7.697-.237c.43-.053 1.368-.058 2.204-.963.66-.69.875-2.256.875-2.256s.218-1.84.218-3.68V7.142c0-1.84-.22-3.678-.22-3.678z" fill="#3C444A" mask="url(#b)"/></g></svg>
