<svg xmlns="http://www.w3.org/2000/svg" viewBox="0 0 112 109"><g fill="none" fill-rule="evenodd" stroke="#414B56" stroke-width="2"><path d="M1 58.11C16.2 57 28.97 50.42 39.31 38.38 49.66 26.33 57.01 14.2 61.4 2L110 48.87c-5.3 12.8-12 24.15-20.1 34.07-12.15 14.88-26.24 23.28-34.4 24.45-8.16 1.17-18.33 1.13-27.22-4.47C22.35 99.19 13.26 84.25 1 58.12v-.01z"/><path d="M33 103.47L45.84 89c5.73 11.76 9.45 17.76 11.16 18M44 50.72L64.9 25c8.43 3.93 12.06 7.77 10.88 11.5-1.76 5.62-13.53 5.81-15.78 5.62-1.5-.13-3.17-1.08-5.02-2.85 3.4 3.86 5.06 6.52 5.02 7.98-.06 2.19-.41 17.4 1.41 21.07 1.22 2.45 3.47 3.68 6.76 3.68M51 62.67l19.9-3.35"/></g></svg>