<svg viewBox="0 0 455 80" version="1.1" xmlns="http://www.w3.org/2000/svg" xmlns:xlink="http://www.w3.org/1999/xlink">
    <!-- Generator: Sketch 50.2 (55047) - http://www.bohemiancoding.com/sketch -->
    <desc>Created with Sketch.</desc>
    <defs></defs>
    <g id="Page-1" stroke="none" stroke-width="1" fill="none" fill-rule="evenodd">
        <g id="logo" fill-rule="nonzero">
            <path d="M67.1,41.4 C67.1,49.5 57.3,59.1 38,70.2 C37.9,70.3 37.8,70.3 37.7,70.4 C37.7,70.4 37.7,70.4 37.7,70.4 L37.7,9 L67.1,17 L67.1,41.4 Z" id="Shape" fill="#FFFFFF"></path>
            <path d="M127.9,26.7 C127.9,29.8 126.4,32.8 122.7,34.5 C127.4,35.9 129.2,41 129.2,43.5 C129.2,52.5 122.5,55.4 114.1,55.4 C107.7,55.4 101.3,55.4 94.9,55.4 L94.9,15 C101.2,15 107.7,15 114.1,15 C121.9,14.9 127.9,18.5 127.9,26.7 Z M102.3,31.2 L114,31.2 C118.8,31.2 120.3,29.2 120.3,26.9 C120.3,25.1 118.8,21.9 114,21.9 L102.3,21.9 L102.3,31.2 Z M102.3,48.2 L114,48.2 C117.1,48.2 121.6,47.2 121.6,43.4 C121.6,39.8 117.2,37.9 114,37.9 L102.3,37.9 L102.3,48.2 Z" id="Shape" fill="#0099d5"></path>
            <path d="M170.6,55.4 L161.5,55.4 L149.7,41.9 L142.4,41.9 L142.4,55.4 L134.8,55.4 L134.8,15 C141.2,15 147.6,15.1 154,15.1 C163.5,15.2 168.5,21.5 168.5,28.5 C168.5,34 166,39.6 158.3,41.2 L170.5,55 L170.5,55.4 L170.6,55.4 Z M142.4,22.1 L142.4,35 L154,35 C158.8,35 160.9,31.8 160.9,28.5 C160.9,25.2 158.8,22 154,22 L142.4,22 L142.4,22.1 Z" id="Shape" fill="#0099d5"></path>
            <polygon id="Shape" fill="#0099d5" points="175.3 55.3 175.3 14.9 182.9 14.9 182.9 55.3"></polygon>
            <polygon id="Shape" fill="#0099d5" points="198.9 14.9 198.9 48.2 219.7 48.2 219.7 55.2 191.3 55.2 191.3 14.8 198.9 14.8"></polygon>
            <polygon id="Shape" fill="#0099d5" points="234.3 14.9 234.3 48.2 255.1 48.2 255.1 55.2 226.7 55.2 226.7 14.8 234.3 14.8"></polygon>
            <path d="M292.5,55.3 L262.3,55.3 C262.3,41.9 262.3,28.4 262.3,14.9 L292.5,14.9 L292.5,22.3 L269.8,22.3 L269.8,31.6 L291.7,31.6 L291.7,38.7 L269.8,38.7 L269.8,47.8 L292.5,47.8 L292.5,55.3 Z" id="Shape" fill="#0099d5"></path>
            <polygon id="Shape" fill="#0099d5" points="324.9 14.9 332.5 14.9 332.5 55.3 327.8 55.3 327.8 55.4 306.6 28.1 306.6 55.3 299 55.3 299 15 305.2 15 325 40 325 14.9"></polygon>
            <path d="M421.2,36.2 C421.1,46.6 414.7,57.1 400.5,57.1 C386.3,57.1 379.7,46.9 379.7,36.3 C379.7,25.7 386.5,15 400.5,15 C414.4,14.9 421.3,25.6 421.2,36.2 Z M387.2,36.3 C387.4,42.9 391,50 400.5,50 C410,50 413.6,42.8 413.7,36.2 C413.8,29.4 410,21.8 400.5,21.8 C391,21.9 387,29.5 387.2,36.3 Z" id="Shape" fill="#0099d5"></path>
            <polygon id="Shape" fill="#0099d5" points="425.9 55.3 425.9 15 454.9 15 454.9 22.3 433.5 22.3 433.5 33.3 453.7 33.3 453.7 40.3 433.5 40.3 433.5 55.2 425.9 55.2"></polygon>
            <polygon id="Shape" fill="#0099d5" points="368 14.9 368 32 348.2 32 348.2 14.9 340.6 14.9 340.6 35.1 340.6 48.5 340.6 55.3 345.8 55.3 348.2 55.3 348.2 39 368 39 368 55.3 375.6 55.3 375.6 14.9"></polygon>
            <polygon id="Shape" fill="#0099d5" points="58.7 20.3 58.7 31.2 46 31.2 46 20.3 41.2 20.3 41.2 33.1 41.2 41.7 41.2 46.1 44.5 46.1 46 46.1 46 35.7 58.7 35.7 58.7 46.1 63.5 46.1 63.5 20.3"></polygon>
            <path d="M37.6,0.9 L0.5,11 L0.5,41.3 C0.5,56.2 19.3,68.6 33.5,76.7 C34.4,77.2 35.1,77.6 35.4,77.8 L37.6,79.3 L39.8,77.8 C40.1,77.6 40.8,77.2 41.7,76.7 C55.9,68.6 74.7,56.2 74.7,41.3 L74.7,11 L37.6,0.9 Z M67.1,41.4 C67.1,49.5 57.3,59.1 38,70.2 C37.9,70.3 37.8,70.3 37.7,70.4 C37.7,70.4 37.7,70.4 37.7,70.4 L37.7,9 L67.1,17 L67.1,41.4 Z" id="Shape" fill="#0099d5"></path>
            <path d="M31.2,27.5 C31.2,29.6 30.2,31.6 27.7,32.7 C30.9,33.7 32,37 32,38.8 C32,44.9 27.5,46.8 21.8,46.8 C17.5,46.8 13.2,46.8 8.9,46.8 L8.9,19.6 C13.2,19.6 17.5,19.6 21.8,19.6 C27.2,19.6 31.2,22 31.2,27.5 Z M14,30.5 L21.8,30.5 C25,30.5 26.1,29.1 26.1,27.6 C26.1,26.4 25.1,24.3 21.8,24.3 L14,24.3 L14,30.5 Z M14,42 L21.8,42 C23.9,42 26.9,41.3 26.9,38.7 C26.9,36.3 23.9,35 21.8,35 L14,35 L14,42 Z" id="Shape" fill="#FFFFFF"></path>
        </g>
    </g>
</svg>
