<?xml version="1.0" encoding="UTF-8"?>
<svg viewBox="0 0 132 139" version="1.1" xmlns="http://www.w3.org/2000/svg" xmlns:xlink="http://www.w3.org/1999/xlink">
    <!-- Generator: Sketch 50.2 (55047) - http://www.bohemiancoding.com/sketch -->
    <title>Untitled</title>
    <desc>Created with Sketch.</desc>
    <defs></defs>
    <g id="Page-1" stroke="none" stroke-width="1" fill="none" fill-rule="evenodd">
        <g id="bf_2" fill-rule="nonzero">
            <path d="M117.8,71.5 C117.8,85.7 100.6,102.7 66.6,122.1 C66.4,122.2 66.2,122.3 66.1,122.4 C66.1,122.4 66.1,122.4 66.1,122.4 L66.1,14.3 L117.9,28.5 L117.9,71.5 L117.8,71.5 Z" id="Shape" fill="#FFFFFF"></path>
            <polygon id="Shape" fill="#0099d5" points="103.1 34.4 103.1 53.5 80.9 53.5 80.9 34.4 72.3 34.4 72.3 57 72.3 72.1 72.3 79.7 78.2 79.7 80.9 79.7 80.9 61.4 103.1 61.4 103.1 79.7 111.6 79.7 111.6 34.4"></polygon>
            <path d="M66.1,0.4 L0.9,18.2 L0.9,71.5 C0.9,97.7 34,119.6 58.9,133.8 C60.5,134.7 61.7,135.4 62.3,135.8 L66.1,138.4 L69.9,135.8 C70.4,135.4 71.6,134.8 73.3,133.8 C98.2,119.6 131.3,97.7 131.3,71.5 L131.3,18.2 L66.1,0.4 Z M117.8,71.5 C117.8,85.7 100.6,102.7 66.6,122.1 C66.4,122.2 66.2,122.3 66.1,122.4 C66.1,122.4 66.1,122.4 66.1,122.4 L66.1,14.3 L117.9,28.5 L117.9,71.5 L117.8,71.5 Z" id="Shape" fill="#0099d5"></path>
            <path d="M54.7,47 C54.7,50.7 52.9,54.2 48.5,56.2 C54.1,57.9 56.1,63.8 56.1,66.8 C56.1,77.4 48.1,80.9 38.2,80.9 C30.6,80.9 23.1,80.9 15.5,80.9 L15.5,33.1 C23,33.1 30.6,33.1 38.2,33.1 C47.7,33.2 54.7,37.4 54.7,47 Z M24.5,52.4 L38.3,52.4 C44,52.4 45.8,50 45.8,47.3 C45.8,45.1 44,41.4 38.3,41.4 L24.5,41.4 L24.5,52.4 Z M24.5,72.6 L38.3,72.6 C42,72.6 47.2,71.4 47.2,66.9 C47.2,62.6 41.9,60.3 38.3,60.3 L24.5,60.3 L24.5,72.6 Z" id="Shape" fill="#FFFFFF"></path>
        </g>
    </g>
</svg>
